<?xml version="1.0" encoding="UTF-8" standalone="no"?>
<svg
   width="41"
   height="37"
   viewBox="0 0 41 37"
   version="1.1"
   id="svg49"
   sodipodi:docname="05.svg"
   inkscape:version="1.1 (c68e22c387, 2021-05-23)"
   xmlns:inkscape="http://www.inkscape.org/namespaces/inkscape"
   xmlns:sodipodi="http://sodipodi.sourceforge.net/DTD/sodipodi-0.dtd"
   xmlns="http://www.w3.org/2000/svg"
   xmlns:svg="http://www.w3.org/2000/svg">
  <sodipodi:namedview
     id="namedview51"
     pagecolor="#ffffff"
     bordercolor="#666666"
     borderopacity="1.0"
     inkscape:pageshadow="2"
     inkscape:pageopacity="0.0"
     inkscape:pagecheckerboard="0"
     showgrid="false"
     inkscape:zoom="19.918919"
     inkscape:cx="20.508141"
     inkscape:cy="18.5"
     inkscape:window-width="1680"
     inkscape:window-height="987"
     inkscape:window-x="-8"
     inkscape:window-y="-8"
     inkscape:window-maximized="1"
     inkscape:current-layer="svg49" />
  <defs
     id="defs45">
    <style
       id="style43">
      .cls-1 {
        fill: #3cc3b5;
        fill-rule: evenodd;
      }
    </style>
  </defs>
  <path
     class="cls-1"
     d="M1042.9,21.009a2.958,2.958,0,0,0-2.94,2.381h-0.08l-9.65,10.741h4.83l6.67-7.42a3.023,3.023,0,0,0,1.17.263,3.065,3.065,0,0,0,1.17-.263l6.67,7.42h4.83l-9.66-10.741h-0.08a2.939,2.939,0,0,0-2.93-2.381h0Zm-17.49,15.505a2.4,2.4,0,0,0-2.42,2.389V40.1a2.371,2.371,0,0,0,2.23,2.349l3.8,13.158c1.21,2.388,2.42,2.388,3.62,2.388h21.72c1.21,0,2.41,0,3.62-2.388l3.81-13.158a2.37,2.37,0,0,0,2.22-2.349V38.9a2.392,2.392,0,0,0-2.41-2.389h-36.19Zm6.78,5.965h0.6a3.1,3.1,0,0,1,2.94,2.237l1.7,7.422a1.826,1.826,0,0,1-1.92,2.271h-0.61a3.14,3.14,0,0,1-2.94-2.271l-1.69-7.422a1.8,1.8,0,0,1,1.92-2.237h0Zm11.31,0a2.392,2.392,0,0,1,2.41,2.389v7.157a2.41,2.41,0,0,1-4.82,0V44.868a2.4,2.4,0,0,1,2.41-2.389h0Zm10.71,0h0.6a1.8,1.8,0,0,1,1.92,2.237l-1.69,7.422a3.13,3.13,0,0,1-2.94,2.271h-0.61a1.826,1.826,0,0,1-1.92-2.271l1.7-7.422a3.1,3.1,0,0,1,2.94-2.237h0Z"
     transform="translate(-1023 -21)"
     id="path47" />
  <path
     style="fill:#ffffff;stroke-width:0.0502035"
     d="M 7.3612206,13.042049 C 7.6354649,12.699058 16.818536,2.5006299 16.884647,2.4656325 c 0.04628,-0.024499 0.136762,-0.2081524 0.20107,-0.4081184 0.455197,-1.41541841 1.959512,-2.26929885 3.447526,-1.95688633 1.033938,0.21707816 1.916208,1.03442223 2.208064,2.04557303 0.04583,0.1587687 0.10275,0.2886703 0.126496,0.2886703 0.02375,0 2.149408,2.3438772 4.723693,5.208616 2.574285,2.8647389 4.737568,5.2707429 4.807296,5.3466759 l 0.126777,0.13806 -2.381509,-0.0023 -2.381509,-0.0023 -3.313433,-3.6921025 C 22.62673,7.4009001 21.118206,5.7284856 21.096844,5.7150792 c -0.02136,-0.013406 -0.1908,0.027826 -0.376527,0.091627 -0.461547,0.1585498 -1.20042,0.1587225 -1.653943,4.016e-4 -0.171704,-0.059961 -0.323228,-0.1090069 -0.336719,-0.1090069 -0.01349,0 -1.528202,1.6717775 -3.366023,3.7150611 L 12.02214,13.128223 H 9.6572295 c -2.2279962,0 -2.3609215,-0.005 -2.2960089,-0.08617 z"
     id="path246" />
  <path
     style="fill:#ffffff;stroke-width:0.0502035"
     d="M 8.6576285,36.921636 C 7.701181,36.780818 6.9537223,36.177536 6.2618855,34.988003 6.0779865,34.671811 5.8585519,33.951016 4.2673641,28.436443 3.2840252,25.028489 2.4251589,22.059123 2.3587722,21.837851 L 2.2380693,21.43554 1.9376989,21.378457 C 1.4887782,21.293143 1.1112987,21.097939 0.77507309,20.777234 0.13417281,20.165919 0.01014143,19.760272 0.03558136,18.358713 0.05175525,17.467647 0.06496154,17.341655 0.16982104,17.078024 0.41905443,16.451417 1.0280882,15.862897 1.6448315,15.652697 c 0.2501906,-0.08527 1.1570052,-0.09023 18.7543655,-0.102489 16.759459,-0.01168 18.520476,-0.0054 18.801221,0.06688 0.844574,0.217477 1.484291,0.873924 1.715062,1.759914 0.08863,0.340276 0.104978,1.704454 0.02556,2.132769 -0.170134,0.91753 -0.933786,1.680939 -1.873153,1.872553 l -0.304279,0.06207 -1.893975,6.547819 c -1.041686,3.6013 -1.952299,6.660777 -2.023584,6.798837 -0.43178,0.836241 -1.131748,1.608329 -1.704504,1.880124 -0.666072,0.316077 -0.0058,0.300645 -12.658504,0.295856 C 14.132295,36.96463 8.8108602,36.9442 8.6576305,36.92164 Z m 4.2982125,-3.515509 c 0.922039,-0.168764 1.531832,-0.8844 1.533219,-1.799341 4.02e-4,-0.248865 -0.210209,-1.249459 -0.856609,-4.070151 -0.47141,-2.05709 -0.902016,-3.875979 -0.956902,-4.041977 -0.221597,-0.670199 -0.841001,-1.364075 -1.514927,-1.697068 -0.554193,-0.273832 -0.970346,-0.346397 -1.8742706,-0.326819 -0.7364873,0.01595 -0.7623004,0.02025 -1.0898197,0.181609 -0.5822972,0.286874 -0.9391664,0.828549 -0.9807927,1.4887 -0.020233,0.320888 0.060742,0.719808 0.8616627,4.244944 1.0182772,4.481795 1.0038673,4.437456 1.6554322,5.093875 0.6506351,0.655482 1.1780241,0.876538 2.2156061,0.928677 0.386567,0.01942 0.704348,0.03909 0.70618,0.0437 0.0018,0.0046 0.137381,-0.01616 0.301221,-0.04615 z m 8.00983,0.0044 c 0.636365,-0.117999 1.317779,-0.611289 1.664473,-1.204947 0.28943,-0.495601 0.287766,-0.468005 0.287766,-4.774594 0,-3.798626 -0.0038,-3.962629 -0.09967,-4.272925 -0.316075,-1.023333 -1.232337,-1.696036 -2.310103,-1.696036 -1.067112,0 -1.980149,0.655079 -2.326725,1.669361 -0.105149,0.307726 -0.10747,0.385583 -0.122319,4.102857 -0.01006,2.517561 0.0029,3.907512 0.03866,4.141791 0.210502,1.379862 1.492747,2.289483 2.867918,2.034493 z m 8.855225,-0.08242 c 0.922334,-0.23282 1.76089,-0.952249 2.104361,-1.805409 0.146668,-0.364317 1.886819,-7.965589 1.886819,-8.241947 0,-0.769868 -0.555471,-1.527827 -1.27932,-1.745673 -0.375775,-0.113092 -1.56476,-0.09911 -2.04637,0.02407 -1.032702,0.264121 -1.827258,0.985265 -2.176646,1.975536 -0.03877,0.109884 -0.459122,1.88552 -0.934116,3.945859 -0.97873,4.245348 -0.984457,4.283927 -0.721659,4.861711 0.247628,0.544431 0.809227,0.979148 1.370276,1.060689 0.36598,0.05319 1.471978,0.0071 1.796655,-0.07483 z"
     id="path971" />
</svg>
